# xmcd CD database file
#
# Track frame offsets:
#	150
#	20775
#	46350
#
# Disc length: 889 seconds
#
# Revision: 0
# Processed by: cddbd v1.5PL3 Copyright (c) Steve Scherf et al.
# Submitted via: CDex 1.51
#
DISCID=21037703
DTITLE=ROLL DAYS - 月とカメレオン
DYEAR=1997
DGENRE=Rock
TTITLE0=月とカメレオン
TTITLE1=Batsugun Love [M-1 Remix]
TTITLE2=月とカメレオン 〜back track〜
EXTD=YEAR: 1997
EXTT0=
EXTT1=
EXTT2=
PLAYORDER=
